. 
  
http://www.torrentday.com/        :     The Hottest Private Tracker On The Net!!!


               www . TorrentDay . Com 
(((((((((((((= Enjoy No RAR releases =))))))))))))))))))))


...................................NFO:....................................

.[img]http://leetleech.org/images/27855991314987313242.png[/img] 

[b]Don't Look Up 2009 480p BRRip XviD AC3-LEGi0N 

[img]http://leetleech.org/images/48874973695367351744.png[/img]
[color=red]General[/color]
Format:AVI 
File size: 1.46 GiB
Duration: 1h 26mn
Overall bit rate: 2 413 Kbps
IMDb Rating: 5.1/10   99 votes 
Genre: Horror
Release Date: N/A  
IMDb Link: http://www.imdb.com/title/tt1034305/
Source: 1080p BluRay x264-SSF  

[color=red]Video[/color]
Format: MPEG-4 Visual
Format profile: Streaming Video@L1
Format settings, BVOP: Yes
Format settings, QPel: No
Format settings, GMC: No warppoints
Format settings, Matrix: Default (H.263)
Muxing mode: Packed bitstream
Codec ID: XVID
Bit rate: 1 955 Kbps
Width: 720 pixels
Height: 400 pixels
Display aspect ratio: 16/9
Frame rate: 23.976 fps
Resolution: 24 bits
Colorimetry: 4:2:0
Scan type: Progressive
Bits/(Pixel*Frame): 0.283
Stream size: 1.18 GiB (81%)

[color=red]Audio[/color]
Format: AC-3
Bit rate mode: Constant
Bit rate: 448 Kbps
Channel(s): 6 channels
Sampling rate: 48.0 KHz
Stream size: 277 MiB (19%)
Subtitles: Hardcoded English for foreign parts

[img]http://leetleech.org/images/89524873606771859129.png[/img]
Evil spirits released from old celluloid causes a film crew to 
slowly go insane while in production on a new project.

[img]http://leetleech.org/images/84434050717770922575.png[/img]
Eli Roth		
Henry Thomas		
Kevin Corrigan		
Elena Satine		
Daniela Sea	... 	Tami
Zelda Williams	... 	Matya
David Dayan Fisher	... 	Wadim
Lothaire Bluteau		
Reshad Strik		
Carmen Chaplin		
Alma Saraci	... 	Crina
Rachael Murphy	... 	Lila Kis
Robert Towers	... 	The Little Man
Ajla Hodzic	... 	Chavi
Jack Dimich	... 	Romanian Grip
Ian Fisher	... 	Grip
Vitaliy Versace	... 	Romanian Electric
Scott Alan	... 	Romanian Police Officer
Sebastian "Sebass" Wolski	... 	Romanian Camera Crew Assistant
Alyssa Sutherland	... 	Claire
Gil Darnell	... 	Romanian Camera Assistant
Kyle Archer	... 	Eddie
Laura Lance	... 	Chuchulina
Justin Loyal	... 	American P.A.
Johnny Mask	... 	Villager
Brian Henderson	... 	Rotino - Peter
Eric Stitt	... 	Romanian 1st AC
Bianca Bonciu	... 	Romanian Assistant
George Anton	... 	Vlad 'the Grip'
Kelly Devoto	... 	Mulli
Maxwell Key	... 	Romanian 2nd AC
Eva Kapusi	... 	Script Supervisor   

[color=red]GREETZ[/color]
Noir | xXTHORNXx | bigimac | LUSi |

kempas | KaN1vE | mike160 | skillz |

Lungbuster | Sheikh | DiLLoN1369 |

FLAWL3SS | AND ALL P2P!

[color=red]SAMPLE INCLUDED[/color][/b]

[img]http://leetleech.org/images/95521316153253938506.png[/img]
[img]http://leetleech.org/images/57909259075275604933.png[/img] 
[img]http://leetleech.org/images/75017506219623731962.png[/img] 
[img]http://leetleech.org/images/11025884548448808466.png[/img] 
[img]http://leetleech.org/images/22660667704805121425.png[/img]
[img]http://leetleech.org/images/31198749469355388922.png[/img]
[img]http://leetleech.org/images/05383288850546095411.png[/img]
[img]http://leetleech.org/images/12755021538703799215.png[/img]